# xmcd CD database file
#
# Track frame offsets:
#	150
#	23135
#	43790
#	77972
#	105656
#	123826
#	143796
#	165101
#	185321
#	208344
#	236804
#	259059
#	278565
#	301656
#
# Disc length: 4445 seconds
#
# Revision: 0
# Processed by: cddbd v1.5.2PL0 Copyright (c) Steve Scherf et al.
# Submitted via: CDex 1.51
#
DISCID=b6115b0e
DTITLE=Sampler - Blues For Broken Hearts
DYEAR=2011
DGENRE=Blues
TTITLE0=Aynsley Lister - Need Her So Bad
TTITLE1=Cadillac Blues Band - Miss You
TTITLE2=Eamon McCormack - She Done Me Wrong
TTITLE3=Guitar Crusher - Darling I Miss You
TTITLE4=Omar Kent Dykes - Dream Girl
TTITLE5=Oli Brown - Stone Cold (Roxanne)
TTITLE6=Erja Lyytinen - Wish I Had You
TTITLE7=Blues Company - Just Can`t Keep From Cryin'
TTITLE8=Dave Kelly Band - Leaving
TTITLE9=Siggi Schwrz and Friends - Still Got The Blues
TTITLE10=Dani Wilde - Don`t Give Up On Me
TTITLE11=Miller Anderson - Boatman
TTITLE12=Coco Montoya - The Life Of My Broken Heart
TTITLE13=Larry Garner - I Ain`t The One
EXTD=YEAR: 2011
EXTT0=
EXTT1=
EXTT2=
EXTT3=
EXTT4=
EXTT5=
EXTT6=
EXTT7=
EXTT8=
EXTT9=
EXTT10=
EXTT11=
EXTT12=
EXTT13=
PLAYORDER=
